<svg role="img" viewBox="0 0 24 24" xmlns="http://www.w3.org/2000/svg" id="Deepgram--Streamline-Simple-Icons" height="24" width="24">
  <desc>
    Deepgram Streamline Icon: https://streamlinehq.com
  </desc>
  <title>Deepgram</title>
  <path d="M11.203 24H1.517a0.364 0.364 0 0 1 -0.258 -0.62l6.239 -6.275a0.366 0.366 0 0 1 0.259 -0.108h3.52c2.723 0 5.025 -2.127 5.107 -4.845a5.004 5.004 0 0 0 -4.999 -5.148H7.613v4.646c0 0.2 -0.164 0.364 -0.365 0.364H0.968a0.365 0.365 0 0 1 -0.363 -0.364V0.364C0.605 0.164 0.768 0 0.969 0h10.416c6.684 0 12.111 5.485 12.01 12.187C23.293 18.77 17.794 24 11.202 24z" fill="#000000" stroke-width="1"></path>
</svg>
